PathFileType	4	(X/Y/Z)	RBDS04static.trc
DataRate	CameraRate	NumFrames	NumMarkers	Units	OrigDataRate	OrigDataStartFrame	OrigNumFrames
150.000000	150.000000	4	48	mm	150.000000	18	150
Frame#	Time	L.Ankle			L.Ankle.Medial			L.ASIS			L.GTR			L.Heel.Bottom			L.Heel.Lateral			L.Heel.Top			L.HF			L.Iliac.Crest			L.Knee			L.Knee.Medial			L.MT1			L.MT2			L.MT5			L.PSIS			L.Shank.Bottom.Lateral			L.Shank.Bottom.Medial			L.Shank.Top.Lateral			L.Shank.Top.Medial			L.Thigh.Bottom.Lateral			L.Thigh.Bottom.Medial			L.Thigh.Top.Lateral			L.Thigh.Top.Medial			L.TT			R.Ankle			R.Ankle.Medial			R.ASIS			R.GTR			R.Heel.Bottom			R.Heel.Lateral			R.Heel.Top			R.HF			R.Iliac.Crest			R.Knee			R.Knee.Medial			R.MT1			R.MT2			R.MT5			R.PSIS			R.Shank.Bottom.Lateral			R.Shank.Bottom.Medial			R.Shank.Top.Lateral			R.Shank.Top.Medial			R.Thigh.Bottom.Lateral			R.Thigh.Bottom.Medial			R.Thigh.Top.Lateral			R.Thigh.Top.Medial			R.TT			
		X1	Y1	Z1	X2	Y2	Z2	X3	Y3	Z3	X4	Y4	Z4	X5	Y5	Z5	X6	Y6	Z6	X7	Y7	Z7	X8	Y8	Z8	X9	Y9	Z9	X10	Y10	Z10	X11	Y11	Z11	X12	Y12	Z12	X13	Y13	Z13	X14	Y14	Z14	X15	Y15	Z15	X16	Y16	Z16	X17	Y17	Z17	X18	Y18	Z18	X19	Y19	Z19	X20	Y20	Z20	X21	Y21	Z21	X22	Y22	Z22	X23	Y23	Z23	X24	Y24	Z24	X25	Y25	Z25	X26	Y26	Z26	X27	Y27	Z27	X28	Y28	Z28	X29	Y29	Z29	X30	Y30	Z30	X31	Y31	Z31	X32	Y32	Z32	X33	Y33	Z33	X34	Y34	Z34	X35	Y35	Z35	X36	Y36	Z36	X37	Y37	Z37	X38	Y38	Z38	X39	Y39	Z39	X40	Y40	Z40	X41	Y41	Z41	X42	Y42	Z42	X43	Y43	Z43	X44	Y44	Z44	X45	Y45	Z45	X46	Y46	Z46	X47	Y47	Z47	X48	Y48	Z48	

19	0.12	694.0778198242188	100.800666809082	1055.108154296875	715.2510375976563	105.0810394287109	1134.236938476563	837.16845703125	977.843505859375	1131.15283203125	746.6670532226563	896.5048828125	1063.709716796875	629.6635131835938	38.84800338745117	1086.58056640625	662.4176025390625	58.45012283325195	1046.577026367188	638.5875854492188	85.6129150390625	1087.605834960938	700.5303344726563	451.3528137207031	1050.216430664063	761.4100341796875	1039.126586914063	1085.901123046875	710.783203125	516.70361328125	1056.5576171875	703.2740478515625	504.9680786132813	1170.705322265625	842.8031616210938	61.40126419067383	1129.255126953125	841.7459716796875	65.89714813232422	1081.750244140625	816.512939453125	49.64821243286133	1028.255249023438	668.7443237304688	1000.876281738281	1188.8115234375	695.7981567382813	184.4658966064453	1047.465454101563	652.8008422851563	179.4135589599609	1074.358520507813	686.2909545898438	264.2214660644531	1038.4326171875	641.6141357421875	263.2117309570313	1067.583740234375	728.1807861328125	632.51318359375	1042.8935546875	665.9873046875	634.816650390625	1081.674072265625	726.7686157226563	743.0703735351563	1041.702514648438	670.9268188476563	745.139892578125	1082.733154296875	750.3186645507813	430.4068603515625	1097.2685546875	692.746337890625	95.79111480712891	1398.927978515625	714.6500854492188	110.985954284668	1320.4931640625	832.4451293945313	975.1089477539063	1335.056030273438	764.3740844726563	893.402587890625	1400.132934570313	628.4278564453125	39.13945770263672	1364.802978515625	660.260498046875	56.37124633789063	1405.322265625	636.0208129882813	84.74433135986328	1364.557250976563	713.5121459960938	450.0792541503906	1415.351196289063	759.6637573242188	1028.820678710938	1376.389892578125	711.5363159179688	526.74267578125	1405.194580078125	715.5130004882813	506.7529907226563	1291.385986328125	841.9716186523438	63.37824249267578	1332.816528320313	855.7442016601563	64.68212890625	1375.311279296875	814.1885375976563	53.03000259399414	1430.328979492188	666.9931030273438	1002.39794921875	1274.156005859375	685.9205932617188	179.0717163085938	1410.003295898438	648.8263549804688	181.6208190917969	1370.084838867188	676.7793579101563	259.006591796875	1421.082275390625	642.08056640625	260.6229553222656	1379.593017578125	721.1594848632813	618.4985961914063	1413.56640625	665.0794067382813	618.751953125	1362.552368164063	714.7308349609375	728.9713745117188	1417.363037109375	664.0131225585938	728.634521484375	1368.323974609375	762.4049072265625	432.6753845214844	1360.25146484375	
20	0.1266666666666667	694.0888671875	100.8050384521484	1055.122680664063	715.2520751953125	105.0848922729492	1134.229370117188	837.1608276367188	977.8515625	1131.172485351563	746.6654052734375	896.5100708007813	1063.718627929688	629.6683349609375	38.85446166992188	1086.58544921875	662.4242553710938	58.44541168212891	1046.584716796875	638.5865478515625	85.61211395263672	1087.602416992188	700.5242919921875	451.3479614257813	1050.234008789063	761.4036865234375	1039.137084960938	1085.918334960938	710.77734375	516.6980590820313	1056.569458007813	703.2569580078125	504.9688720703125	1170.705200195313	842.8014526367188	61.40175247192383	1129.269409179688	841.753173828125	65.90315246582031	1081.745971679688	816.5197143554688	49.65914154052734	1028.258544921875	668.7346801757813	1000.875061035156	1188.821166992188	695.7973022460938	184.4744720458984	1047.474853515625	652.8055419921875	179.4080200195313	1074.36181640625	686.2890014648438	264.2206726074219	1038.4453125	641.3798217773438	263.4424133300781	1067.502319335938	728.1732788085938	632.51513671875	1042.906372070313	665.972900390625	634.8214111328125	1081.681884765625	726.7628784179688	743.0687255859375	1041.722900390625	670.9208374023438	745.138671875	1082.75	750.320556640625	430.4220581054688	1097.289184570313	692.7353515625	95.7899169921875	1398.92724609375	714.6532592773438	110.9923095703125	1320.492309570313	832.4238891601563	975.1224975585938	1335.08203125	764.3568725585938	893.403564453125	1400.144287109375	628.42333984375	39.1439094543457	1364.802368164063	660.2545776367188	56.37405395507813	1405.327758789063	636.02001953125	84.75068664550781	1364.558837890625	713.5003051757813	450.0771179199219	1415.364990234375	759.6336059570313	1028.842041015625	1376.389282226563	711.5151977539063	526.7383422851563	1405.199829101563	715.5049438476563	506.7620544433594	1291.394775390625	841.98291015625	63.39074325561523	1332.82275390625	855.7367553710938	64.691162109375	1375.304443359375	814.1815795898438	53.0351448059082	1430.32958984375	666.9796142578125	1002.3984375	1274.169311523438	685.9122314453125	179.0780334472656	1410.012329101563	648.8215942382813	181.6145629882813	1370.076416015625	676.7659301757813	259.0080261230469	1421.08447265625	642.0768432617188	260.6163024902344	1379.598266601563	721.1363525390625	618.4904174804688	1413.579345703125	665.0533447265625	618.7525024414063	1362.561401367188	714.7122802734375	728.9547119140625	1417.361694335938	663.9879150390625	728.6348876953125	1368.329223632813	762.408935546875	432.6937255859375	1360.278198242188	
21	0.1333333333333333	694.08154296875	100.7996673583984	1055.113403320313	715.2557983398438	105.0797805786133	1134.23291015625	837.1556396484375	977.85498046875	1131.1884765625	746.6586303710938	896.5072631835938	1063.729125976563	629.6668701171875	38.85419845581055	1086.580444335938	662.4277954101563	58.44764709472656	1046.574340820313	638.5861206054688	85.61118316650391	1087.607421875	700.51318359375	451.3417663574219	1050.233520507813	761.4014892578125	1039.138305664063	1085.932250976563	710.7679443359375	516.702392578125	1056.568115234375	703.2412109375	504.9641418457031	1170.718872070313	842.7922973632813	61.40061187744141	1129.264892578125	841.7463989257813	65.89524078369141	1081.742431640625	816.5262451171875	49.65569305419922	1028.262573242188	668.7128295898438	1000.871032714844	1188.820922851563	695.7885131835938	184.4696044921875	1047.475830078125	652.8096313476563	179.407958984375	1074.369995117188	686.2922973632813	264.216796875	1038.447021484375	641.3717041015625	263.4410400390625	1067.508422851563	728.163818359375	632.5120239257813	1042.911743164063	665.9673461914063	634.8218383789063	1081.696533203125	726.7565307617188	743.0685424804688	1041.733032226563	670.908935546875	745.136962890625	1082.771240234375	750.3101196289063	430.4212951660156	1097.293334960938	692.7266845703125	95.79756927490234	1398.923095703125	714.6511840820313	110.9886474609375	1320.49267578125	832.3984375	975.1221313476563	1335.089233398438	764.3408203125	893.4022216796875	1400.152221679688	628.4277954101563	39.14032745361328	1364.824462890625	660.2549438476563	56.38189315795898	1405.334106445313	636.0283203125	84.740966796875	1364.550903320313	713.487548828125	450.0721435546875	1415.370483398438	759.6077270507813	1028.85302734375	1376.399658203125	711.4988403320313	526.728515625	1405.204711914063	715.5194702148438	506.7602233886719	1291.41259765625	841.982421875	63.38701248168945	1332.822143554688	855.7473754882813	64.68634796142578	1375.299194335938	814.181640625	53.03391265869141	1430.338134765625	666.95947265625	1002.399291992188	1274.177124023438	685.9066772460938	179.0746307373047	1410.0068359375	648.8206787109375	181.61083984375	1370.080444335938	676.7540283203125	259.0118713378906	1421.076293945313	642.060302734375	260.6170043945313	1379.597412109375	721.1127319335938	618.4915771484375	1413.594604492188	665.0419921875	618.7506103515625	1362.565551757813	714.6954956054688	728.9594116210938	1417.385009765625	663.9664306640625	728.6384887695313	1368.332153320313	762.38037109375	432.6906433105469	1360.271240234375	
22	0.14	694.0741577148438	100.7997817993164	1055.11376953125	715.2599487304688	105.079216003418	1134.223388671875	837.1365356445313	977.8519287109375	1131.193359375	746.6367797851563	896.5185546875	1063.739624023438	629.6672973632813	38.84885406494141	1086.591674804688	662.4136352539063	58.44198226928711	1046.579833984375	638.58740234375	85.60411834716797	1087.600952148438	700.5183715820313	451.345947265625	1050.265869140625	761.3915405273438	1039.148193359375	1085.94384765625	710.7505493164063	516.69384765625	1056.584228515625	703.2467041015625	504.9537048339844	1170.718017578125	842.7937622070313	61.39192199707031	1129.253784179688	841.7457275390625	65.89902496337891	1081.740478515625	816.5136108398438	49.64665985107422	1028.256225585938	668.7017211914063	1000.869567871094	1188.836181640625	695.7918090820313	184.4638671875	1047.480712890625	652.796630859375	179.4096527099609	1074.359497070313	686.2786254882813	264.2101745605469	1038.444580078125	641.6074829101563	263.209716796875	1067.581909179688	728.158447265625	632.5115966796875	1042.921020507813	665.952880859375	634.8167724609375	1081.70166015625	726.7438354492188	743.0650024414063	1041.74267578125	670.8953857421875	745.1292114257813	1082.7685546875	750.2893676757813	430.4000244140625	1097.305541992188	692.7337036132813	95.79988861083984	1398.929077148438	714.6539916992188	110.9812088012695	1320.48779296875	832.381103515625	975.1223754882813	1335.089965820313	764.3112182617188	893.4074096679688	1400.162231445313	628.42431640625	39.14049911499023	1364.816650390625	660.2548828125	56.387939453125	1405.325561523438	636.0181274414063	84.74224090576172	1364.550048828125	713.4653930664063	450.0640258789063	1415.380249023438	759.5822143554688	1028.870239257813	1376.399536132813	711.4882202148438	526.730712890625	1405.220947265625	715.4722290039063	506.7622375488281	1291.390014648438	841.972412109375	63.38335418701172	1332.807739257813	855.7408447265625	64.68582916259766	1375.30859375	814.1812133789063	53.03091049194336	1430.327514648438	666.94384765625	1002.393188476563	1274.189208984375	685.8990478515625	179.0768890380859	1410.006958007813	648.8132934570313	181.609619140625	1370.079833984375	676.74951171875	259.0031433105469	1421.08154296875	642.0499877929688	260.6088562011719	1379.598876953125	721.096923828125	618.4842529296875	1413.603149414063	665.0197143554688	618.7412719726563	1362.57373046875	714.6648559570313	728.957763671875	1417.389282226563	663.9401245117188	728.6317749023438	1368.333374023438	762.3646240234375	432.6841735839844	1360.254028320313	
